<svg xmlns="http://www.w3.org/2000/svg" xmlns:xlink="http://www.w3.org/1999/xlink" viewBox="0 0 132 29"><path d="M 16.47 0 C 19.083 0.311 21.484 1.3 23.49 2.783 L 16.47 9.723 Z" fill="rgb(255,75,64)"/><path d="M 16.47 18.197 L 16.47 28.846 C 19.315 28.507 21.909 27.365 24.015 25.656 Z" fill="rgb(254,216,18)"/><path d="M 12.92 0 C 5.641 0.867 0 6.993 0 14.423 C 0 21.853 5.641 27.98 12.92 28.846 Z" fill="rgb(6,237,196)"/><path d="M 44.274 12.305 L 41.117 12.305 C 41.06 11.902 40.942 11.543 40.764 11.229 C 40.591 10.917 40.359 10.641 40.079 10.417 C 39.801 10.194 39.479 10.023 39.114 9.904 C 38.753 9.785 38.361 9.726 37.939 9.726 C 37.175 9.726 36.509 9.914 35.942 10.289 C 35.375 10.659 34.936 11.201 34.623 11.914 C 34.311 12.621 34.155 13.481 34.155 14.493 C 34.155 15.533 34.311 16.407 34.623 17.115 C 34.941 17.823 35.383 18.357 35.95 18.718 C 36.517 19.079 37.172 19.26 37.917 19.26 C 38.335 19.26 38.722 19.205 39.078 19.096 C 39.438 18.987 39.757 18.827 40.036 18.618 C 40.314 18.405 40.549 18.142 40.728 17.842 C 40.915 17.538 41.045 17.191 41.117 16.802 L 44.274 16.816 C 44.192 17.485 43.988 18.132 43.661 18.754 C 43.339 19.371 42.905 19.925 42.357 20.414 C 41.814 20.898 41.165 21.283 40.411 21.568 C 39.661 21.849 38.813 21.989 37.867 21.989 C 36.55 21.989 35.373 21.694 34.335 21.105 C 33.302 20.516 32.485 19.663 31.885 18.547 C 31.289 17.431 30.991 16.079 30.991 14.493 C 30.991 12.902 31.294 11.548 31.899 10.432 C 32.505 9.315 33.326 8.465 34.364 7.881 C 35.402 7.292 36.569 6.997 37.867 6.997 C 38.722 6.997 39.515 7.116 40.245 7.353 C 40.98 7.591 41.631 7.938 42.198 8.394 C 42.765 8.845 43.226 9.398 43.582 10.054 C 43.942 10.709 44.173 11.46 44.274 12.305 Z M 46.454 21.789 L 46.454 10.845 L 49.431 10.845 L 49.431 12.754 L 49.546 12.754 C 49.748 12.075 50.086 11.562 50.562 11.215 C 51.038 10.864 51.586 10.688 52.205 10.688 C 52.359 10.688 52.525 10.697 52.703 10.717 C 52.881 10.735 53.037 10.762 53.171 10.795 L 53.171 13.488 C 53.027 13.445 52.828 13.407 52.573 13.374 C 52.318 13.341 52.085 13.324 51.874 13.324 C 51.422 13.324 51.019 13.422 50.663 13.617 C 50.316 13.803 50.027 14.078 49.827 14.414 C 49.625 14.756 49.524 15.151 49.524 15.597 L 49.524 21.789 Z M 61.858 17.129 L 61.858 10.845 L 64.928 10.845 L 64.928 21.789 L 61.98 21.789 L 61.98 19.801 L 61.865 19.801 C 61.615 20.442 61.199 20.958 60.618 21.347 C 60.041 21.737 59.338 21.932 58.506 21.932 C 57.766 21.932 57.115 21.765 56.553 21.433 C 55.991 21.1 55.551 20.628 55.234 20.015 C 54.922 19.402 54.763 18.668 54.759 17.813 L 54.759 10.845 L 57.829 10.845 L 57.829 17.272 C 57.834 17.918 58.009 18.428 58.355 18.804 C 58.701 19.179 59.165 19.367 59.746 19.367 C 60.116 19.367 60.462 19.283 60.784 19.117 C 61.106 18.946 61.365 18.694 61.562 18.362 C 61.764 18.029 61.862 17.619 61.858 17.129 Z M 76.595 13.966 L 73.784 14.136 C 73.736 13.9 73.63 13.68 73.474 13.495 C 73.315 13.301 73.106 13.146 72.847 13.032 C 72.592 12.913 72.287 12.854 71.932 12.854 C 71.456 12.854 71.055 12.954 70.728 13.153 C 70.401 13.348 70.238 13.609 70.238 13.937 C 70.238 14.198 70.344 14.419 70.555 14.6 C 70.766 14.78 71.129 14.925 71.643 15.034 L 73.647 15.433 C 74.723 15.652 75.526 16.003 76.054 16.488 C 76.583 16.973 76.847 17.609 76.847 18.398 C 76.847 19.115 76.633 19.744 76.205 20.286 C 75.783 20.827 75.201 21.25 74.461 21.554 C 73.726 21.853 72.878 22.003 71.917 22.003 C 70.452 22.003 69.284 21.701 68.414 21.098 C 67.55 20.49 67.043 19.663 66.894 18.618 L 69.914 18.462 C 70.005 18.903 70.226 19.241 70.577 19.473 C 70.927 19.702 71.377 19.815 71.924 19.815 C 72.463 19.815 72.895 19.713 73.222 19.509 C 73.553 19.3 73.721 19.032 73.726 18.704 C 73.721 18.428 73.604 18.203 73.373 18.027 C 73.142 17.846 72.787 17.709 72.306 17.614 L 70.389 17.236 C 69.308 17.022 68.503 16.652 67.975 16.125 C 67.451 15.597 67.189 14.925 67.189 14.108 C 67.189 13.405 67.381 12.799 67.766 12.291 C 68.155 11.783 68.7 11.391 69.402 11.116 C 70.108 10.84 70.935 10.702 71.881 10.702 C 73.279 10.702 74.38 10.994 75.182 11.579 C 75.989 12.163 76.46 12.959 76.595 13.966 Z M 84.669 10.845 L 84.669 13.125 L 78.002 13.125 L 78.002 10.845 L 84.669 10.845 Z M 79.515 8.223 L 82.586 8.223 L 82.586 18.426 C 82.586 18.706 82.629 18.925 82.715 19.082 C 82.802 19.234 82.922 19.34 83.076 19.402 C 83.234 19.464 83.417 19.495 83.623 19.495 C 83.768 19.495 83.912 19.483 84.056 19.459 C 84.2 19.431 84.311 19.409 84.387 19.395 L 84.87 21.654 C 84.717 21.701 84.5 21.756 84.222 21.818 C 83.943 21.884 83.604 21.925 83.205 21.939 C 82.466 21.967 81.817 21.87 81.26 21.647 C 80.707 21.423 80.277 21.077 79.969 20.606 C 79.662 20.136 79.51 19.542 79.515 18.825 Z M 92.196 21.789 L 86.964 21.789 L 86.964 7.197 L 92.24 7.197 C 93.724 7.197 95.002 7.489 96.074 8.073 C 97.145 8.653 97.969 9.486 98.546 10.574 C 99.127 11.662 99.418 12.963 99.418 14.479 C 99.418 15.999 99.127 17.305 98.546 18.398 C 97.969 19.49 97.141 20.329 96.06 20.913 C 94.983 21.497 93.695 21.789 92.196 21.789 Z M 90.085 19.146 L 92.067 19.146 C 92.989 19.146 93.765 18.984 94.395 18.661 C 95.029 18.333 95.505 17.827 95.822 17.144 C 96.144 16.455 96.305 15.566 96.305 14.479 C 96.305 13.4 96.144 12.519 95.822 11.835 C 95.505 11.151 95.031 10.648 94.402 10.325 C 93.772 10.002 92.996 9.84 92.074 9.84 L 90.085 9.84 Z M 104.829 21.996 C 104.123 21.996 103.493 21.875 102.94 21.632 C 102.388 21.385 101.951 21.022 101.629 20.542 C 101.312 20.058 101.153 19.454 101.153 18.732 C 101.153 18.124 101.266 17.614 101.492 17.2 C 101.718 16.787 102.025 16.455 102.414 16.203 C 102.804 15.951 103.246 15.761 103.741 15.633 C 104.256 15.502 104.782 15.411 105.312 15.362 C 105.955 15.296 106.474 15.234 106.868 15.177 C 107.262 15.115 107.548 15.025 107.726 14.906 C 107.904 14.787 107.993 14.612 107.993 14.379 L 107.993 14.336 C 107.993 13.885 107.849 13.536 107.56 13.289 C 107.277 13.042 106.873 12.918 106.35 12.918 C 105.797 12.918 105.357 13.039 105.031 13.282 C 104.704 13.519 104.488 13.818 104.382 14.179 L 101.542 13.951 C 101.686 13.286 101.97 12.711 102.393 12.227 C 102.816 11.738 103.361 11.363 104.029 11.101 C 104.701 10.835 105.48 10.702 106.364 10.702 C 106.979 10.702 107.568 10.773 108.13 10.916 C 108.697 11.059 109.199 11.279 109.636 11.579 C 110.074 11.874 110.433 12.27 110.681 12.733 C 110.936 13.198 111.063 13.757 111.063 14.407 L 111.063 21.789 L 108.151 21.789 L 108.151 20.271 L 108.065 20.271 C 107.886 20.615 107.644 20.921 107.351 21.176 C 107.054 21.433 106.695 21.635 106.278 21.782 C 105.859 21.925 105.377 21.996 104.829 21.996 Z M 105.708 19.901 C 106.16 19.901 106.558 19.813 106.904 19.637 C 107.25 19.457 107.522 19.215 107.719 18.911 C 107.916 18.607 108.014 18.262 108.014 17.877 L 108.014 16.716 C 107.918 16.778 107.786 16.835 107.618 16.887 C 107.455 16.934 107.27 16.98 107.063 17.022 C 106.856 17.06 106.65 17.096 106.443 17.129 C 106.237 17.158 106.049 17.184 105.881 17.208 C 105.521 17.26 105.206 17.343 104.937 17.457 C 104.668 17.571 104.459 17.725 104.31 17.92 C 104.161 18.11 104.087 18.348 104.087 18.633 C 104.087 19.046 104.238 19.362 104.541 19.58 C 104.848 19.794 105.237 19.901 105.708 19.901 Z M 119.333 10.845 L 119.333 13.125 L 112.667 13.125 L 112.667 10.845 Z M 114.18 8.223 L 117.25 8.223 L 117.25 18.426 C 117.25 18.706 117.294 18.925 117.38 19.082 C 117.467 19.234 117.587 19.34 117.741 19.402 C 117.899 19.464 118.082 19.495 118.288 19.495 C 118.432 19.495 118.577 19.483 118.721 19.459 C 118.865 19.431 118.975 19.409 119.052 19.395 L 119.535 21.654 C 119.381 21.701 119.165 21.756 118.886 21.818 C 118.608 21.884 118.269 21.925 117.87 21.939 C 117.13 21.967 116.482 21.87 115.924 21.647 C 115.372 21.423 114.942 21.077 114.634 20.606 C 114.327 20.136 114.175 19.542 114.18 18.825 Z M 124.49 21.996 C 123.784 21.996 123.154 21.875 122.602 21.632 C 122.049 21.385 121.612 21.022 121.29 20.542 C 120.973 20.058 120.814 19.454 120.814 18.732 C 120.814 18.124 120.927 17.614 121.153 17.2 C 121.379 16.787 121.687 16.455 122.076 16.203 C 122.465 15.951 122.907 15.761 123.402 15.633 C 123.918 15.502 124.443 15.411 124.973 15.362 C 125.617 15.296 126.136 15.234 126.53 15.177 C 126.924 15.115 127.21 15.025 127.387 14.906 C 127.565 14.787 127.654 14.612 127.654 14.379 L 127.654 14.336 C 127.654 13.885 127.51 13.536 127.222 13.289 C 126.938 13.042 126.534 12.918 126.011 12.918 C 125.458 12.918 125.019 13.039 124.692 13.282 C 124.365 13.519 124.149 13.818 124.043 14.179 L 121.204 13.951 C 121.348 13.286 121.631 12.711 122.054 12.227 C 122.477 11.738 123.022 11.363 123.69 11.101 C 124.363 10.835 125.141 10.702 126.025 10.702 C 126.64 10.702 127.229 10.773 127.791 10.916 C 128.358 11.059 128.86 11.279 129.297 11.579 C 129.735 11.874 130.094 12.27 130.342 12.733 C 130.597 13.198 130.724 13.757 130.724 14.407 L 130.724 21.789 L 127.813 21.789 L 127.813 20.271 L 127.726 20.271 C 127.547 20.615 127.305 20.921 127.013 21.176 C 126.715 21.433 126.357 21.635 125.939 21.782 C 125.521 21.925 125.038 21.996 124.49 21.996 Z M 125.369 19.901 C 125.821 19.901 126.22 19.813 126.566 19.637 C 126.912 19.457 127.183 19.215 127.38 18.911 C 127.577 18.607 127.676 18.262 127.676 17.877 L 127.676 16.716 C 127.58 16.778 127.447 16.835 127.279 16.887 C 127.116 16.934 126.931 16.98 126.724 17.022 C 126.518 17.06 126.311 17.096 126.104 17.129 C 125.898 17.158 125.71 17.184 125.542 17.208 C 125.182 17.26 124.867 17.343 124.598 17.457 C 124.329 17.571 124.12 17.725 123.971 17.92 C 123.822 18.11 123.748 18.348 123.748 18.633 C 123.748 19.046 123.899 19.362 124.202 19.58 C 124.509 19.794 124.898 19.901 125.369 19.901 Z" fill="rgb(255,255,255)"/></svg>